<?xml version="1.0" encoding="utf-8"?>
<!-- Generator: Adobe Illustrator 16.0.0, SVG Export Plug-In . SVG Version: 6.00 Build 0)  -->
<!DOCTYPE svg PUBLIC "-//W3C//DTD SVG 1.1//EN" "http://www.w3.org/Graphics/SVG/1.1/DTD/svg11.dtd">
<svg version="1.1" xmlns="http://www.w3.org/2000/svg" xmlns:xlink="http://www.w3.org/1999/xlink" x="0px" y="0px" width="240px"
	 height="240px" viewBox="0 0 240 240" enable-background="new 0 0 240 240" xml:space="preserve">
<g id="Layer_5" display="none">
</g>
<g id="learn">
</g>
<g id="contribute">
	<g>
		<line fill="none" stroke="#333333" stroke-width="3" stroke-miterlimit="10" x1="30" y1="163.5" x2="114" y2="163.5"/>
		<line fill="none" stroke="#333333" stroke-width="3" stroke-miterlimit="10" x1="30" y1="220.5" x2="114" y2="220.5"/>
		<line fill="none" stroke="#333333" stroke-width="3" stroke-miterlimit="10" x1="112.5" y1="162" x2="112.5" y2="222"/>
		<line fill="none" stroke="#333333" stroke-width="3" stroke-miterlimit="10" x1="31.5" y1="162" x2="31.5" y2="222"/>
		<line fill="none" stroke="#333333" stroke-width="3" stroke-miterlimit="10" x1="45" y1="192.5" x2="99" y2="192.5"/>
		<line fill="none" stroke="#333333" stroke-width="3" stroke-miterlimit="10" x1="45" y1="204.5" x2="78" y2="204.5"/>
		<line fill="none" stroke="#333333" stroke-width="3" stroke-miterlimit="10" x1="45" y1="180.5" x2="99" y2="180.5"/>
	</g>
	<g>
		<path fill="#333333" stroke="#333333" stroke-width="3" stroke-miterlimit="10" d="M148,33.499c0,2.488-2.013,4.501-4.499,4.501
			c-2.485,0-4.501-2.014-4.501-4.501c0-2.481,2.016-4.499,4.501-4.499C145.987,29,148,31.017,148,33.499z"/>
		<line fill="none" stroke="#333333" stroke-width="3" stroke-miterlimit="10" x1="128" y1="19.5" x2="212" y2="19.5"/>
		<line fill="none" stroke="#333333" stroke-width="3" stroke-miterlimit="10" x1="128" y1="76.5" x2="212" y2="76.5"/>
		<line fill="none" stroke="#333333" stroke-width="3" stroke-miterlimit="10" x1="210.5" y1="18" x2="210.5" y2="78"/>
		<line fill="none" stroke="#333333" stroke-width="3" stroke-miterlimit="10" x1="129.5" y1="18" x2="129.5" y2="78"/>
		<polygon fill="#333333" stroke="#333333" stroke-width="3" stroke-miterlimit="10" points="155.625,46.667 140,67.5 200,67.5 
			175.5,34.833 161.125,54 155.625,46.667 		"/>
	</g>
	<g>
		<polygon fill="#333333" stroke="#333333" stroke-miterlimit="10" points="61.5,36 85.5,48.001 61.5,60 		"/>
		<line fill="none" stroke="#333333" stroke-width="3" stroke-miterlimit="10" x1="30" y1="19.5" x2="114" y2="19.5"/>
		<line fill="none" stroke="#333333" stroke-width="3" stroke-miterlimit="10" x1="30" y1="76.5" x2="114" y2="76.5"/>
		<line fill="none" stroke="#333333" stroke-width="3" stroke-miterlimit="10" x1="112.5" y1="18" x2="112.5" y2="78"/>
		<line fill="none" stroke="#333333" stroke-width="3" stroke-miterlimit="10" x1="31.5" y1="18" x2="31.5" y2="78"/>
	</g>
	<g>
		<line fill="none" stroke="#333333" stroke-width="3" stroke-miterlimit="10" x1="30" y1="91.5" x2="114" y2="91.5"/>
		<line fill="none" stroke="#333333" stroke-width="3" stroke-miterlimit="10" x1="30" y1="148.5" x2="114" y2="148.5"/>
		<line fill="none" stroke="#333333" stroke-width="3" stroke-miterlimit="10" x1="112.5" y1="90" x2="112.5" y2="150"/>
		<line fill="none" stroke="#333333" stroke-width="3" stroke-miterlimit="10" x1="31.5" y1="90" x2="31.5" y2="150"/>
		<path fill="none" stroke="#333333" stroke-width="3" stroke-miterlimit="10" d="M80,103.5"/>
		<polygon fill="none" stroke="#333333" stroke-width="3" stroke-miterlimit="10" points="57.625,118.667 42,139.5 102,139.5 
			77.5,106.833 63.125,126 57.625,118.667 		"/>
		<path fill="none" stroke="#333333" stroke-width="3" stroke-miterlimit="10" d="M50,105.499c0,2.488-2.013,4.501-4.499,4.501
			c-2.485,0-4.501-2.014-4.501-4.501c0-2.481,2.016-4.499,4.501-4.499C47.987,101,50,103.017,50,105.499z"/>
	</g>
	<g>
		<line fill="none" stroke="#333333" stroke-width="3" stroke-miterlimit="10" x1="128" y1="91.5" x2="212" y2="91.5"/>
		<line fill="none" stroke="#333333" stroke-width="3" stroke-miterlimit="10" x1="128" y1="148.5" x2="212" y2="148.5"/>
		<line fill="none" stroke="#333333" stroke-width="3" stroke-miterlimit="10" x1="210.5" y1="90" x2="210.5" y2="150"/>
		<line fill="none" stroke="#333333" stroke-width="3" stroke-miterlimit="10" x1="129.5" y1="90" x2="129.5" y2="150"/>
		<g>
			<path fill="#333333" d="M154.5,110.253c-1.317-0.278-2.451-0.417-3.402-0.417c-2.26,0-3.389,1.179-3.389,3.539v2.531h6.345v2.086
				h-6.345v10.258h-2.553v-10.258H140.5v-2.086h4.656v-2.388c0-3.846,2.009-5.769,6.028-5.769c0.998,0,2.104,0.115,3.315,0.345
				V110.253z"/>
		</g>
		<g>
			<path fill="#333333" d="M159,113.764h2.304l0.105,2.377c0.435-0.508,0.857-0.932,1.264-1.269
				c0.406-0.338,0.805-0.609,1.197-0.815c0.391-0.205,0.789-0.349,1.196-0.433c0.406-0.083,0.828-0.124,1.266-0.124
				c1.534,0,2.698,0.447,3.486,1.342c0.787,0.896,1.182,2.244,1.182,4.045v9.613h-2.588v-9.408c0-1.154-0.218-2.008-0.653-2.562
				c-0.438-0.553-1.087-0.829-1.948-0.829c-0.318,0-0.628,0.047-0.93,0.139c-0.303,0.094-0.616,0.256-0.943,0.484
				c-0.328,0.23-0.683,0.541-1.064,0.933s-0.81,0.881-1.285,1.468v9.775H159V113.764z"/>
		</g>
		<g>
			<path fill="#333333" d="M183.516,135c-4.345-4.176-6.516-8.791-6.516-13.846c0-1.182,0.114-2.365,0.347-3.543
				c0.23-1.178,0.603-2.358,1.116-3.543c0.514-1.183,1.191-2.365,2.035-3.549c0.843-1.184,1.867-2.355,3.074-3.52l1.428,1.51
				c-3.656,3.745-5.484,7.896-5.484,12.453c0,2.27,0.462,4.449,1.386,6.541c0.923,2.092,2.29,4.068,4.099,5.926L183.516,135z"/>
		</g>
		<g>
			<path fill="#333333" d="M192.484,107c4.344,4.175,6.516,8.82,6.516,13.934c0,1.057-0.104,2.15-0.311,3.285
				c-0.208,1.135-0.561,2.297-1.061,3.484s-1.172,2.393-2.015,3.615c-0.844,1.223-1.906,2.449-3.187,3.682L191,133.49
				c1.838-1.889,3.208-3.859,4.113-5.912c0.904-2.055,1.356-4.205,1.356-6.453c0-4.655-1.823-8.841-5.47-12.556L192.484,107z"/>
		</g>
	</g>
	<g>
		<g>
			<line fill="none" stroke="#333333" stroke-width="3" stroke-miterlimit="10" x1="128" y1="163.5" x2="134" y2="163.5"/>
			
				<line fill="none" stroke="#333333" stroke-width="3" stroke-miterlimit="10" stroke-dasharray="10.2857,10.2857" x1="144.286" y1="163.5" x2="200.857" y2="163.5"/>
			<line fill="none" stroke="#333333" stroke-width="3" stroke-miterlimit="10" x1="206" y1="163.5" x2="212" y2="163.5"/>
		</g>
	</g>
	<g>
		<g>
			<line fill="none" stroke="#333333" stroke-width="3" stroke-miterlimit="10" x1="128" y1="220.5" x2="134" y2="220.5"/>
			
				<line fill="none" stroke="#333333" stroke-width="3" stroke-miterlimit="10" stroke-dasharray="10.2857,10.2857" x1="144.286" y1="220.5" x2="200.857" y2="220.5"/>
			<line fill="none" stroke="#333333" stroke-width="3" stroke-miterlimit="10" x1="206" y1="220.5" x2="212" y2="220.5"/>
		</g>
	</g>
	<g>
		<g>
			<line fill="none" stroke="#333333" stroke-width="3" stroke-miterlimit="10" x1="210.5" y1="162" x2="210.5" y2="168"/>
			
				<line fill="none" stroke="#333333" stroke-width="3" stroke-miterlimit="10" stroke-dasharray="9.6,9.6" x1="210.5" y1="177.6" x2="210.5" y2="211.2"/>
			<line fill="none" stroke="#333333" stroke-width="3" stroke-miterlimit="10" x1="210.5" y1="216" x2="210.5" y2="222"/>
		</g>
	</g>
	<g>
		<g>
			<line fill="none" stroke="#333333" stroke-width="3" stroke-miterlimit="10" x1="129.5" y1="162" x2="129.5" y2="168"/>
			
				<line fill="none" stroke="#333333" stroke-width="3" stroke-miterlimit="10" stroke-dasharray="9.6,9.6" x1="129.5" y1="177.6" x2="129.5" y2="211.2"/>
			<line fill="none" stroke="#333333" stroke-width="3" stroke-miterlimit="10" x1="129.5" y1="216" x2="129.5" y2="222"/>
		</g>
	</g>
	<line fill="none" stroke="#333333" stroke-width="3" stroke-miterlimit="10" x1="170.5" y1="178" x2="170.5" y2="206"/>
	<line fill="none" stroke="#333333" stroke-width="3" stroke-miterlimit="10" x1="184" y1="191.5" x2="156" y2="191.5"/>
</g>
<g id="discover-image" display="none">
</g>
<g id="discover-devices">
</g>
<g id="discover-content">
</g>
<g id="Layer_1">
</g>
</svg>
