<?xml version="1.0" encoding="utf-8"?>
<!-- Generator: Adobe Illustrator 16.0.0, SVG Export Plug-In . SVG Version: 6.00 Build 0)  -->
<!DOCTYPE svg PUBLIC "-//W3C//DTD SVG 1.1//EN" "http://www.w3.org/Graphics/SVG/1.1/DTD/svg11.dtd">
<svg version="1.1" xmlns="http://www.w3.org/2000/svg" xmlns:xlink="http://www.w3.org/1999/xlink" x="0px" y="0px" width="240px"
	 height="240px" viewBox="0 0 240 240" enable-background="new 0 0 240 240" xml:space="preserve">
<g id="Layer_5" display="none">
</g>
<g id="learn">
</g>
<g id="contribute">
</g>
<g id="discover-image" display="none">
	<g id="s6jItR_1_" display="inline">
		
			<image overflow="visible" width="400" height="300" id="s6jItR_2_" xlink:href="FEDF38AB85A247F5.png"  transform="matrix(0.7183 0 0 0.7183 -9.334 4.5)">
		</image>
	</g>
</g>
<g id="discover-devices">
	<rect x="19.5" y="32.5" fill="none" stroke="#333333" stroke-width="3" stroke-miterlimit="10" width="203" height="141"/>
	<rect x="33.5" y="46.5" fill="none" stroke="#333333" stroke-width="3" stroke-miterlimit="10" width="175" height="95"/>
	<line fill="none" stroke="#333333" stroke-width="3" stroke-miterlimit="10" x1="145" y1="173" x2="150" y2="197"/>
	<polyline fill="none" stroke="#333333" stroke-width="3" stroke-linejoin="round" stroke-miterlimit="10" points="127,203.5 
		157.25,203.5 157.75,203.5 149.75,196.5 	"/>
	<rect x="42.5" y="116.5" fill="#F1F1F1" stroke="#333333" stroke-width="3" stroke-miterlimit="10" width="75" height="99"/>
	<rect x="51.5" y="128.5" fill="none" stroke="#333333" stroke-width="3" stroke-miterlimit="10" width="57" height="75"/>
	<rect x="98.5" y="170.5" fill="#F1F1F1" stroke="#333333" stroke-width="3" stroke-miterlimit="10" width="27" height="50"/>
</g>
<g id="discover-content">
	<line fill="none" stroke="#333333" stroke-width="3" stroke-miterlimit="10" x1="119" y1="123.5" x2="160" y2="123.5"/>
	<line fill="none" stroke="#333333" stroke-width="3" stroke-miterlimit="10" x1="80" y1="105.5" x2="160" y2="105.5"/>
	<line fill="none" stroke="#333333" stroke-width="3" stroke-miterlimit="10" x1="63" y1="161.5" x2="97" y2="161.5"/>
	<line fill="none" stroke="#333333" stroke-width="3" stroke-miterlimit="10" x1="63" y1="172.5" x2="97" y2="172.5"/>
	<line fill="none" stroke="#333333" stroke-width="3" stroke-miterlimit="10" x1="63" y1="183.5" x2="81" y2="183.5"/>
	<line fill="none" stroke="#333333" stroke-width="3" stroke-miterlimit="10" x1="104" y1="193.5" x2="120" y2="193.5"/>
	<line fill="none" stroke="#333333" stroke-width="3" stroke-miterlimit="10" x1="104" y1="202.5" x2="120" y2="202.5"/>
	<line fill="none" stroke="#333333" stroke-width="3" stroke-miterlimit="10" x1="104" y1="211.5" x2="112" y2="211.5"/>
	<line fill="none" stroke="#333333" stroke-width="3" stroke-miterlimit="10" x1="57" y1="89.5" x2="183" y2="89.5"/>
	<line fill="none" stroke="#333333" stroke-width="3" stroke-miterlimit="10" x1="181.5" y1="48" x2="181.5" y2="91"/>
	<polyline fill="none" stroke="#333333" stroke-width="3" stroke-miterlimit="10" points="126.598,46.701 136.4,51.602 107.6,66 
		107.6,46 	"/>
	<polyline fill="none" stroke="#333333" stroke-width="3" stroke-miterlimit="10" points="84.714,128.42 90.5,131.361 73.5,140 
		73.5,128 	"/>
	<polyline fill="none" stroke="#333333" stroke-width="3" stroke-miterlimit="10" points="114.697,177.049 116.6,178.017 
		106.4,183.199 106.4,176 	"/>
	<line fill="none" stroke="#333333" stroke-width="3" stroke-miterlimit="10" x1="58.5" y1="48" x2="58.5" y2="91"/>
</g>
<g id="Layer_1">
</g>
</svg>
