<?xml version="1.0" encoding="utf-8"?>
<!-- Generator: Adobe Illustrator 16.0.0, SVG Export Plug-In . SVG Version: 6.00 Build 0)  -->
<!DOCTYPE svg PUBLIC "-//W3C//DTD SVG 1.1//EN" "http://www.w3.org/Graphics/SVG/1.1/DTD/svg11.dtd">
<svg version="1.1" xmlns="http://www.w3.org/2000/svg" xmlns:xlink="http://www.w3.org/1999/xlink" x="0px" y="0px" width="240px"
	 height="240px" viewBox="0 0 240 240" enable-background="new 0 0 240 240" xml:space="preserve">
<g id="Layer_1">
	<g>
		
			<rect x="140.932" y="230.249" transform="matrix(-0.9336 0.3584 -0.3584 -0.9336 392.6565 392.7158)" fill="none" stroke="#333333" stroke-width="3" stroke-miterlimit="10" width="38" height="4.999"/>
		<polygon fill="none" stroke="#333333" stroke-width="3" stroke-miterlimit="10" points="163.096,218.794 138.09,233.23 
			173.565,219.612 171.774,214.945 165.771,217.249 		"/>
		
			<rect x="145.932" y="238.909" transform="matrix(-0.9336 0.3584 -0.3584 -0.9336 405.4281 407.6688)" fill="none" stroke="#333333" stroke-width="3" stroke-miterlimit="10" width="38" height="4.999"/>
		<path fill="none" stroke="#333333" stroke-width="3" stroke-miterlimit="10" d="M107.468,206.373l22.76,24.41l43.122-24.896
			l-9.759-31.916c-0.688-3.522-0.794-15.766-0.404-21.825c0.968-15.083-3.698-25.356-7.888-32.649l-0.136-0.243
			c-0.599-1.037-1.277-2.073-1.95-3.102l-0.456-0.715c-7.545-11.661-18.199-18.776-32.571-21.752
			c-5.053-1.045-10.449-1.182-16.135-0.392c-6.891,0.742-13.488,2.817-19.608,6.173l-0.16,0.085l-0.136,0.059l-0.604,0.356
			l-0.086,0.041l-0.09,0.061l-0.755,0.424c-0.044,0.026-0.088,0.056-0.129,0.088l-0.121,0.093l-0.13,0.079
			c-5.246,3.216-9.806,7.233-13.611,12.014c-4.274,5.039-7.381,10.43-9.23,16.021c-4.588,13.867-3.755,26.649,2.553,39.086
			c3.371,6.644,9.645,19.009,26.572,27.387C93.971,197.957,104.794,204.041,107.468,206.373z"/>
	</g>
</g>
<g id="Layer_4">
</g>
<g id="Layer_3">
</g>
<g id="Default">
	<polyline fill="none" stroke="#333333" stroke-width="2" stroke-linecap="round" stroke-linejoin="round" points="120,28.907 
		117.999,30.913 120,32.918 	"/>
	
		<line fill="none" stroke="#333333" stroke-width="2" stroke-linecap="round" stroke-linejoin="round" x1="101.993" y1="39.938" x2="63.978" y2="39.938"/>
	
		<line fill="none" stroke="#333333" stroke-width="2" stroke-linecap="round" stroke-linejoin="round" x1="105.994" y1="43.95" x2="101.993" y2="39.938"/>
	
		<line fill="none" stroke="#333333" stroke-width="2" stroke-linecap="round" stroke-linejoin="round" x1="134.006" y1="47.961" x2="134.006" y2="43.95"/>
	
		<line fill="none" stroke="#333333" stroke-width="2" stroke-linecap="round" stroke-linejoin="round" x1="138.007" y1="39.938" x2="176.022" y2="39.938"/>
	
		<line fill="none" stroke="#333333" stroke-width="2" stroke-linecap="round" stroke-linejoin="round" x1="134.006" y1="43.95" x2="138.007" y2="39.938"/>
	
		<line fill="none" stroke="#333333" stroke-width="2" stroke-linecap="round" stroke-linejoin="round" x1="105.82" y1="18.295" x2="106.957" y2="18"/>
	
		<line fill="none" stroke="#333333" stroke-width="2" stroke-linecap="round" stroke-linejoin="round" x1="111.15" y1="32.918" x2="106.957" y2="18"/>
	
		<line fill="none" stroke="#333333" stroke-width="2" stroke-linecap="round" stroke-linejoin="round" x1="107.995" y1="35.927" x2="105.82" y2="18.295"/>
	
		<line fill="none" stroke="#333333" stroke-width="2" stroke-linecap="round" stroke-linejoin="round" x1="135.856" y1="21.991" x2="137.179" y2="22.703"/>
	
		<line fill="none" stroke="#333333" stroke-width="2" stroke-linecap="round" stroke-linejoin="round" x1="137.179" y1="22.703" x2="132.005" y2="35.927"/>
	
		<line fill="none" stroke="#333333" stroke-width="2" stroke-linecap="round" stroke-linejoin="round" x1="128.003" y1="35.927" x2="135.856" y2="21.991"/>
	
		<line fill="none" stroke="#333333" stroke-width="2" stroke-linecap="round" stroke-linejoin="round" x1="111.997" y1="47.961" x2="94.675" y2="60.115"/>
	
		<line fill="none" stroke="#333333" stroke-width="2" stroke-linecap="round" stroke-linejoin="round" x1="95.99" y1="62" x2="113.998" y2="51.972"/>
	
		<line fill="none" stroke="#333333" stroke-width="2" stroke-linecap="round" stroke-linejoin="round" x1="95.99" y1="62" x2="94.675" y2="60.115"/>
	
		<line fill="none" stroke="#333333" stroke-width="2" stroke-linecap="round" stroke-linejoin="round" x1="144.01" y1="62" x2="145.325" y2="60.115"/>
	
		<line fill="none" stroke="#333333" stroke-width="2" stroke-linecap="round" stroke-linejoin="round" x1="144.01" y1="62" x2="126.002" y2="51.972"/>
	
		<line fill="none" stroke="#333333" stroke-width="2" stroke-linecap="round" stroke-linejoin="round" x1="99.568" y1="59.995" x2="140.432" y2="59.995"/>
	
		<line fill="none" stroke="#333333" stroke-width="2" stroke-linecap="round" stroke-linejoin="round" x1="126.002" y1="51.972" x2="113.998" y2="51.972"/>
	
		<line fill="none" stroke="#333333" stroke-width="2" stroke-linecap="round" stroke-linejoin="round" x1="128.003" y1="47.961" x2="145.325" y2="60.115"/>
	
		<line fill="none" stroke="#333333" stroke-width="2" stroke-linecap="round" stroke-linejoin="round" x1="49.972" y1="35.927" x2="120" y2="35.927"/>
	
		<line fill="none" stroke="#333333" stroke-width="2" stroke-linecap="round" stroke-linejoin="round" x1="190.028" y1="35.927" x2="120" y2="35.927"/>
	
		<line fill="none" stroke="#333333" stroke-width="2" stroke-linecap="round" stroke-linejoin="round" x1="105.994" y1="47.961" x2="134.006" y2="47.961"/>
	<path fill="none" stroke="#333333" stroke-width="2" stroke-linecap="round" stroke-linejoin="round" d="M57.975,22.052
		c8.855-0.873,15.258,0.396,20.114,0.877c4.857,0.481,8.17,0.173,8.761-0.101c0.591-0.275-1.541-0.518-3.997-0.729
		c-2.458-0.21-5.239-0.39-9.771,0.038c-4.533,0.427-10.818,1.461-15.106,0.588"/>
	<path fill="none" stroke="#333333" stroke-width="2" stroke-linecap="round" stroke-linejoin="round" d="M55.974,22.052
		c-8.854-0.873-15.257,0.396-20.113,0.877c-4.857,0.481-8.17,0.173-8.761-0.101c-0.591-0.275,1.541-0.518,3.997-0.729
		c2.458-0.21,5.238-0.39,9.771,0.038c4.533,0.427,10.818,1.461,15.105,0.588"/>
	<polyline fill="none" stroke="#333333" stroke-width="2" stroke-linecap="round" stroke-linejoin="round" points="55.974,23.894 
		55.974,20.885 57.975,20.885 57.975,23.894 	"/>
	<polyline fill="none" stroke="#333333" stroke-width="2" stroke-linecap="round" stroke-linejoin="round" points="59.976,27.905 
		59.976,23.894 53.974,23.894 53.974,27.905 	"/>
	<polyline fill="none" stroke="#333333" stroke-width="2" stroke-linecap="round" stroke-linejoin="round" points="61.977,35.927 
		61.977,27.905 51.973,27.905 51.973,35.927 	"/>
	
		<line fill="none" stroke="#333333" stroke-width="2" stroke-linecap="round" stroke-linejoin="round" x1="60.977" y1="52.975" x2="56.403" y2="52.975"/>
	
		<line fill="none" stroke="#333333" stroke-width="2" stroke-linecap="round" stroke-linejoin="round" x1="54.739" y1="47.14" x2="56.403" y2="52.975"/>
	
		<line fill="none" stroke="#333333" stroke-width="2" stroke-linecap="round" stroke-linejoin="round" x1="60.977" y1="48.963" x2="60.977" y2="52.975"/>
	
		<line fill="none" stroke="#333333" stroke-width="2" stroke-linecap="round" stroke-linejoin="round" x1="60.977" y1="48.963" x2="54.739" y2="47.14"/>
	
		<line fill="none" stroke="#333333" stroke-width="2" stroke-linecap="round" stroke-linejoin="round" x1="63.978" y1="39.938" x2="63.978" y2="55.983"/>
	
		<line fill="none" stroke="#333333" stroke-width="2" stroke-linecap="round" stroke-linejoin="round" x1="49.972" y1="39.938" x2="53.974" y2="55.983"/>
	
		<line fill="none" stroke="#333333" stroke-width="2" stroke-linecap="round" stroke-linejoin="round" x1="63.978" y1="55.983" x2="53.974" y2="55.983"/>
	
		<line fill="none" stroke="#333333" stroke-width="2" stroke-linecap="round" stroke-linejoin="round" x1="60.977" y1="39.938" x2="60.977" y2="45.955"/>
	
		<line fill="none" stroke="#333333" stroke-width="2" stroke-linecap="round" stroke-linejoin="round" x1="52.973" y1="39.938" x2="54.116" y2="43.95"/>
	
		<line fill="none" stroke="#333333" stroke-width="2" stroke-linecap="round" stroke-linejoin="round" x1="60.977" y1="45.955" x2="54.116" y2="43.95"/>
	
		<line fill="none" stroke="#333333" stroke-width="2" stroke-linecap="round" stroke-linejoin="round" x1="60.977" y1="39.938" x2="52.973" y2="39.938"/>
	
		<line fill="none" stroke="#333333" stroke-width="2" stroke-linecap="round" stroke-linejoin="round" x1="49.972" y1="39.938" x2="49.972" y2="35.927"/>
	
		<line fill="none" stroke="#333333" stroke-width="2" stroke-linecap="round" stroke-linejoin="round" x1="190.028" y1="39.938" x2="190.028" y2="35.927"/>
	
		<line fill="none" stroke="#333333" stroke-width="2" stroke-linecap="round" stroke-linejoin="round" x1="179.023" y1="39.938" x2="187.027" y2="39.938"/>
	
		<line fill="none" stroke="#333333" stroke-width="2" stroke-linecap="round" stroke-linejoin="round" x1="179.023" y1="45.955" x2="185.883" y2="43.95"/>
	
		<line fill="none" stroke="#333333" stroke-width="2" stroke-linecap="round" stroke-linejoin="round" x1="187.027" y1="39.938" x2="185.883" y2="43.95"/>
	
		<line fill="none" stroke="#333333" stroke-width="2" stroke-linecap="round" stroke-linejoin="round" x1="179.023" y1="39.938" x2="179.023" y2="45.955"/>
	
		<line fill="none" stroke="#333333" stroke-width="2" stroke-linecap="round" stroke-linejoin="round" x1="176.022" y1="55.983" x2="186.026" y2="55.983"/>
	
		<line fill="none" stroke="#333333" stroke-width="2" stroke-linecap="round" stroke-linejoin="round" x1="190.028" y1="39.938" x2="186.026" y2="55.983"/>
	
		<line fill="none" stroke="#333333" stroke-width="2" stroke-linecap="round" stroke-linejoin="round" x1="176.022" y1="39.938" x2="176.022" y2="55.983"/>
	
		<line fill="none" stroke="#333333" stroke-width="2" stroke-linecap="round" stroke-linejoin="round" x1="179.023" y1="48.963" x2="185.261" y2="47.14"/>
	
		<line fill="none" stroke="#333333" stroke-width="2" stroke-linecap="round" stroke-linejoin="round" x1="179.023" y1="48.963" x2="179.023" y2="52.975"/>
	
		<line fill="none" stroke="#333333" stroke-width="2" stroke-linecap="round" stroke-linejoin="round" x1="185.261" y1="47.14" x2="183.597" y2="52.975"/>
	
		<line fill="none" stroke="#333333" stroke-width="2" stroke-linecap="round" stroke-linejoin="round" x1="179.023" y1="52.975" x2="183.597" y2="52.975"/>
	<polyline fill="none" stroke="#333333" stroke-width="2" stroke-linecap="round" stroke-linejoin="round" points="178.023,35.927 
		178.023,27.905 188.027,27.905 188.027,35.927 	"/>
	<polyline fill="none" stroke="#333333" stroke-width="2" stroke-linecap="round" stroke-linejoin="round" points="180.024,27.905 
		180.024,23.894 186.026,23.894 186.026,27.905 	"/>
	<polyline fill="none" stroke="#333333" stroke-width="2" stroke-linecap="round" stroke-linejoin="round" points="184.025,23.894 
		184.025,20.885 182.025,20.885 182.025,23.894 	"/>
	<path fill="none" stroke="#333333" stroke-width="2" stroke-linecap="round" stroke-linejoin="round" d="M184.025,22.052
		c8.855-0.873,15.258,0.396,20.115,0.877c4.856,0.481,8.169,0.173,8.76-0.101c0.59-0.275-1.541-0.518-3.997-0.729
		c-2.458-0.21-5.238-0.39-9.772,0.038c-4.532,0.427-10.817,1.461-15.105,0.588"/>
	<path fill="none" stroke="#333333" stroke-width="2" stroke-linecap="round" stroke-linejoin="round" d="M182.025,22.052
		c-8.855-0.873-15.258,0.396-20.115,0.877c-4.856,0.481-8.169,0.173-8.76-0.101c-0.59-0.275,1.541-0.518,3.997-0.729
		c2.458-0.21,5.239-0.39,9.772,0.038c4.532,0.427,10.817,1.461,15.105,0.588"/>
	<polyline fill="none" stroke="#333333" stroke-width="2" stroke-linecap="round" stroke-linejoin="round" points="109.996,35.927 
		109.996,32.918 129.698,32.918 	"/>
	<path fill="none" stroke="#333333" stroke-width="2" stroke-linecap="round" stroke-linejoin="round" d="M127.979,28.51
		c0.028-0.184-0.056-0.288-0.164-0.412c-0.188-0.215-0.415-0.355-0.657-0.493c-0.874-0.497-1.802-0.785-2.753-1.058
		c-1.365-0.391-2.745-0.675-4.146-0.895c-1.399-0.219-2.8-0.371-4.219-0.416c-0.99-0.032-1.96-0.041-2.944,0.165
		c-0.272,0.058-0.531,0.121-0.776,0.269c-0.142,0.084-0.253,0.159-0.281,0.342c-0.028,0.184,0.056,0.289,0.163,0.412
		c0.188,0.215,0.416,0.355,0.657,0.493c0.874,0.497,1.802,0.786,2.754,1.058c1.365,0.392,2.744,0.675,4.146,0.895
		c1.4,0.22,2.8,0.371,4.219,0.416c0.99,0.032,1.96,0.041,2.945-0.165c0.271-0.058,0.531-0.121,0.776-0.269
		C127.837,28.768,127.949,28.694,127.979,28.51z"/>
	
		<line fill="none" stroke="#333333" stroke-width="2" stroke-linecap="round" stroke-linejoin="round" x1="105.994" y1="47.961" x2="105.994" y2="43.95"/>
</g>
<g id="Layer_5">
	<line fill="none" stroke="#333333" stroke-width="2" stroke-miterlimit="10" x1="101.334" y1="59.995" x2="63.659" y2="120"/>
	<line fill="none" stroke="#333333" stroke-width="2" stroke-miterlimit="10" x1="138.007" y1="59.995" x2="162.826" y2="135.344"/>
</g>
</svg>
